<svg xmlns="http://www.w3.org/2000/svg" viewBox="0 0 346.36 293.95"><defs><style>.cls-1{fill:#ebebeb;}.cls-2{fill:#a6a6a6;}.cls-3{fill:#263238;}.cls-4{fill:#ffc727;}.cls-5{fill:#ffd2af;}.cls-6{fill:#ffa292;}.cls-7{fill:#001627;}.cls-7,.cls-9{opacity:0.1;}.cls-8{fill:#6f96bd;}.cls-13,.cls-9{fill:#352c38;}.cls-10{fill:#8baecc;}.cls-11{fill:#965450;}.cls-12{fill:#ffac9d;}.cls-14{opacity:0.4;}.cls-15{fill:#b27676;}.cls-16{fill:#fff;}.cls-17{fill:#ffa65b;}.cls-18{fill:#708187;}.cls-19{fill:#455a64;}</style></defs><g id="Layer_2" data-name="Layer 2"><g id="Layer_7" data-name="Layer 7"><rect class="cls-1" x="329.24" y="11.34" width="15.09" height="2.43"/><rect class="cls-1" x="329.24" y="22.21" width="15.09" height="2.43"/><rect class="cls-1" x="329.24" y="16.84" width="15.09" height="2.43"/><path class="cls-1" d="M71.82,23.05V62.47h39.42V23.05Zm3,36.45V26h33.47V59.5Z"/><path class="cls-1" d="M300.78,254.53V294h39.43V254.53Zm3,36.44V257.5h33.47V291Z"/><rect class="cls-2" x="75.68" y="220.64" width="62.64" height="4.73"/><rect class="cls-3" x="259.19" y="86.67" width="87.17" height="4.73"/><path class="cls-4" d="M312.24,267.09H97.54V52.39h214.7ZM116.46,248.17H293.31V71.32H116.46Z"/><polygon class="cls-3" points="346.36 173.84 259.19 173.84 259.19 86.67 263.92 86.67 263.92 169.11 341.63 169.11 341.63 86.67 346.36 86.67 346.36 173.84"/><polygon class="cls-2" points="138.32 225.37 133.59 225.37 133.59 167.45 80.41 167.45 80.41 225.37 75.68 225.37 75.68 162.72 138.32 162.72 138.32 225.37"/><rect class="cls-4" y="116.44" width="103.62" height="3.67"/><path class="cls-5" d="M196.26,248.12c8.75-18.29,4-55.41,4-55.41l-45-12.82c-6.12,25.44,6.73,54.42,14.35,68.23Z"/><path class="cls-6" d="M202.88,248.12c8.75-18.29-2.6-55.41-2.6-55.41l-45-12.82c-6.12,25.44,6.73,54.42,14.35,68.23Z"/><path class="cls-7" d="M203.42,248.12c8.75-18.29-3.14-55.41-3.14-55.41l-45-12.82c-6.12,25.44,6.73,54.42,14.35,68.23Z"/><path class="cls-6" d="M228.76,248.5c.14-.28.27-.56.4-.85,10.68-23.12,10-48.16,10-48.16l-43.58,7.45c-1.87,16.34.86,33.66,4.06,41.56Z"/><path class="cls-8" d="M167.61,142.15s-21.1,28.62-17.32,82.2l43,15.68,47.14-16.32s2.83-44.84-26.23-89.4C196.9,107.8,167.61,142.15,167.61,142.15Z"/><path class="cls-7" d="M206.12,158.35a50.11,50.11,0,0,0,18.73-4.68,100.92,100.92,0,0,0-10.66-19.36c-18.39-25.11-46.58,7.84-46.58,7.84a82.81,82.81,0,0,0-4.35,8.11C176.67,158,191.7,159.05,206.12,158.35Z"/><path class="cls-9" d="M193.26,229.74c-21.45-10-36.16-33-39-55.34-3.16,12-4.76,32.79-3.85,49.44l42.81,15.8A33.53,33.53,0,0,0,193.26,229.74Z"/><path class="cls-10" d="M150.18,222.58l43.18,15.15-.27,10.39s-23.72-.61-41-8.18A34.73,34.73,0,0,1,150.18,222.58Z"/><path class="cls-7" d="M150.18,222.58l43.18,15.15-.27,10.39s-23.72-.61-41-8.18A34.73,34.73,0,0,1,150.18,222.58Z"/><path class="cls-10" d="M192.81,236.54l.47,10.69s28.48,1.9,46.92-8.71a28.26,28.26,0,0,0,1.6-15.93Z"/><path class="cls-11" d="M230.29,14.07s-16.63-26.11-43-5.76c-20.4,15.75-7.85,39.16-16.45,54.9s3.55,22.84,11.78,22.84,27.65-4.61,27.65-4.61Z"/><path class="cls-11" d="M230.1,14.49a33.85,33.85,0,0,0-13.3-11,24.17,24.17,0,0,0-8.32-2.06,25.25,25.25,0,0,0-8.47,1c-10.78,3.49-20.79,11.78-23.35,23.08-1.48,5.55-1.6,11.41-1.8,17.28-.12,2.94-.26,5.9-.62,8.87a33.4,33.4,0,0,1-2.16,8.74c-1.22,2.85-2.85,5.18-3.7,7.93a14.11,14.11,0,0,0-.3,8.33,12.25,12.25,0,0,0,5.22,6.55c.6.4,1.26.71,1.9,1a18.57,18.57,0,0,0,2,.77,17,17,0,0,0,4.3.83,17,17,0,0,1-8.51-2.2,13.05,13.05,0,0,1-5.87-6.69,15.13,15.13,0,0,1,0-9c.79-2.93,2.51-5.55,3.51-8.13,2-5.36,2.2-11.26,2.34-17.1s.24-11.86,1.76-17.72A30.57,30.57,0,0,1,184,9.62c.55-.52,1.14-1,1.73-1.45s1.19-.93,1.81-1.35,1.22-.86,1.85-1.26l1.92-1.17A35,35,0,0,1,199.6.91a25.91,25.91,0,0,1,9-.81,24.63,24.63,0,0,1,8.62,2.47,30.74,30.74,0,0,1,7.28,5.12A32.67,32.67,0,0,1,230.1,14.49Z"/><path class="cls-6" d="M217.05,76.07,220.33,54l-21.57,4.62-1.54,15.61-12.48,1.14s-12.13,17.55,11.72,23.36S225.76,79,225.76,79Z"/><path class="cls-12" d="M183.18,30C190,7.2,213.69,13.6,225.48,18.57c-3,12.51-3,23.4-2,35.88C198.64,81.69,172.38,66,183.18,30Z"/><path class="cls-6" d="M226.83,38.8c-1.14-.4-2.8.62-3.91,1.2a72.94,72.94,0,0,1-1.86,13,4.24,4.24,0,0,0,1.57,1c2.92,1,6.23-1.56,7.39-5.74S229.75,39.81,226.83,38.8Z"/><path class="cls-13" d="M201.37,32.27a8.9,8.9,0,0,1,7.61-1.7c.33.12.67.23,1,.36s.63.34.94.53a8.83,8.83,0,0,1,.81.68,3.29,3.29,0,0,1,.69.8,6.56,6.56,0,0,1,1.27,3.76,15.79,15.79,0,0,0-2.35-2.79,6.73,6.73,0,0,0-2.86-1.55,12.42,12.42,0,0,0-3.39-.37C203.9,32,202.67,32.13,201.37,32.27Z"/><path class="cls-13" d="M184.6,29.08a6.64,6.64,0,0,1,2.81-2,6.24,6.24,0,0,1,3.59-.29,5.24,5.24,0,0,1,3.09,2,6.21,6.21,0,0,1,.87,1.54,8.07,8.07,0,0,1,.38,1.67c-.44-.39-.76-.82-1.14-1.2a10.46,10.46,0,0,0-1.14-1,5.73,5.73,0,0,0-2.46-1.21,8.62,8.62,0,0,0-2.84-.1A26.83,26.83,0,0,0,184.6,29.08Z"/><g class="cls-14"><path class="cls-15" d="M194.85,39.5a16.29,16.29,0,0,1-1.69,3.66,23.09,23.09,0,0,1-2.34,3.23l0-.59c1.1,1.31,2.18,2.64,3.18,4-1.35-1.07-2.62-2.22-3.87-3.38l-.24-.22.19-.38a25.14,25.14,0,0,1,2.08-3.4A16.61,16.61,0,0,1,194.85,39.5Z"/></g><path class="cls-16" d="M188.2,52.3s6.38,11.68,17.19,2.81Z"/><path class="cls-13" d="M206.58,40.93c-.17,1.64.28,3,1,3.11s1.46-1.19,1.64-2.83-.28-3-1-3.11S206.76,39.29,206.58,40.93Z"/><path class="cls-13" d="M189.48,38.57c-.18,1.63.27,3,1,3.1s1.46-1.19,1.63-2.82-.27-3-1-3.11S189.65,36.93,189.48,38.57Z"/><g class="cls-14"><path class="cls-15" d="M224.92,51a.93.93,0,0,0-.18-1.17,2.42,2.42,0,0,0-1.22-.34l-.32,0v-.37a19.24,19.24,0,0,1,.71-5.27,5.77,5.77,0,0,1,1.32-2.48A1.67,1.67,0,0,1,226,41a1.15,1.15,0,0,1,.79.21,2.72,2.72,0,0,1,.84,1.09,3.67,3.67,0,0,0-1-.71.65.65,0,0,0-.83.28,6.57,6.57,0,0,0-.85,2.24c-.21.82-.36,1.67-.51,2.51L224,49.12l-.32-.39a3.33,3.33,0,0,1,.75.26,1.79,1.79,0,0,1,.67.5,1,1,0,0,1,.23.82A1.34,1.34,0,0,1,224.92,51Z"/></g><path class="cls-6" d="M132.61,56.72C133.52,52,135,44.94,136,45.05c1.37.17.23,9.12.23,9.12s2.89-11.47,4.14-11.61-.51,11.52-.58,12h0c.15-.5,3.84-12.71,5.34-11.53,1,.78-.29,6.37-1.3,10.15,8.44-17.76,2.7,1.85.92,7.71,0,.44-.07.89-.13,1.35,14.62-8.66,3.35,1.74-.65,5.3-.69,9.32-3.56,21.27-3.73,28.36l35.67-18.66,5.78,20.61S138,126.76,125,114.22c-5.1-4.93,4.29-44.55,6.32-52.35A34.88,34.88,0,0,1,132.61,56.72Z"/><path class="cls-17" d="M144,73.59l.65-5.43s-7.73-4.29-14.9-3l-1.15,6.07Z"/><path class="cls-18" d="M144,73.59l.65-5.43s-7.73-4.29-14.9-3l-1.15,6.07Z"/><path class="cls-19" d="M174.06,103.69s-37.85,22.42-47.64,14.25S121,74.29,129.15,70.33l13.91,1.92s3.83.45,3.47,5.73-3.27,15.43-3.27,15.43,23.06-17.22,36.79-18.18S173.91,105,173.91,105"/><path class="cls-7" d="M180.05,75.23c-7.57.53-18,6-25.79,10.8l-.06.08a1.46,1.46,0,0,1,.37,1.18c-.81,8.89-1,17.8-1,26.71a198.91,198.91,0,0,0,20.45-10.31l-.15,1.28S193.78,74.27,180.05,75.23Z"/><path class="cls-19" d="M246.72,100.8s-5.07-18.31-23.45-22.59c0,0-1.8,11.87-19.16,9.67S186.8,74.55,186.8,74.55s-10.06-2.23-24.74,7l5.68,23.5-8.53,30.28s31.6,16.91,68.79,9.05c0,0,1.22-21.57-.89-32.23A83.5,83.5,0,0,0,246.72,100.8Z"/><path class="cls-7" d="M161.45,126.25l-2.24,9.07s31.6,16.91,68.79,9.05c0,0,1.12-19.91-.66-30.92C212.9,128.32,183.38,131.31,161.45,126.25Z"/><path class="cls-19" d="M169.06,95.26s-18.43,13-5,26.49c10.85,10.84,14.78-16.89,14.78-16.89Z"/><path class="cls-6" d="M265.73,106.19a115.83,115.83,0,0,0,11.57,10.4c2.94-7.35,5.27-13.87,6.18-16.56a32.84,32.84,0,0,0,1.8-5c1.83-4.43,4.44-11.17,3.62-11.58-1.24-.62-5.21,7.48-5.21,7.48s3.89-11.16,2.92-12-5.91,9.9-6.13,10.37h0c.15-.5,3.78-12.73,1.88-12.57-1.26.11-3.26,5.48-4.49,9.2,2.71-19.48-3.28,0-5,5.93-.22.38-.43.78-.64,1.19-7.44-15.26-3.75-.38-2.36,4.79C268.44,100.42,267.07,103.28,265.73,106.19Z"/><path class="cls-17" d="M266.48,102.87,268.93,98s8.81.67,14.07,5.71l-2.37,5.7Z"/><path class="cls-18" d="M266.48,102.87,268.93,98s8.81.67,14.07,5.71l-2.37,5.7Z"/><path class="cls-19" d="M224.82,111.48s19.29,39.54,32,38.1,28.5-33.49,23.9-41.27l-12.67-6s-3.46-1.73-6.05,2.88-5.76,14.68-5.76,14.68-9.78-27.07-20.73-35.41-11.22,28.21-11.22,28.21"/><path class="cls-11" d="M224.15,17.33s-6.53,15-34.36,7.29l14-3.07s-11.71-1-19.57,5c0,0-.39-15.74,15.16-17.27A31.52,31.52,0,0,1,224.15,17.33Z"/><path class="cls-11" d="M220.12,19.63s-14.59,25.92,4,47c0,0-6.72-25.91,1.54-27.64,0,0,4.79.19,4.6,6.33s-5.37,9.6-8.83,8.45c0,0-12.28,11.31-8.81,23.83,1.7,6.15,16.68,2.08,24.36,8,0,0,16.89-3.26,11.52-17.85s-10.72-14.65-6.34-37C245.84,12.15,226.64,4.47,220.12,19.63Z"/><path class="cls-11" d="M248.63,80.63a13.46,13.46,0,0,0,2.1-3.55,10.65,10.65,0,0,0,.76-4,16.56,16.56,0,0,0-2.19-7.7l.08.11a33.65,33.65,0,0,1-5.29-8.63,37.23,37.23,0,0,1-2.52-9.83,66.54,66.54,0,0,1-.3-10.07c.15-3.34.45-6.65.73-10v.08a17.28,17.28,0,0,0-3.32-10.24,10.83,10.83,0,0,0-4.15-3.36,10.55,10.55,0,0,0-5.32-.84h.06a14.77,14.77,0,0,0-5.79,2.42A9.8,9.8,0,0,0,220,20.32a10.82,10.82,0,0,1,1-3.1,9.38,9.38,0,0,1,2.07-2.59,15.16,15.16,0,0,1,5.9-3h.06a11.85,11.85,0,0,1,6,.62,12.27,12.27,0,0,1,4.87,3.64,16.71,16.71,0,0,1,2.91,5.29,19,19,0,0,1,1.07,5.95v.08c-.27,3.3-.53,6.59-.65,9.87a65.06,65.06,0,0,0,.21,9.78,36.09,36.09,0,0,0,2.18,9.41,34.14,34.14,0,0,0,4.7,8.47l.06.07,0,0a16.62,16.62,0,0,1,1.78,8.31,11.64,11.64,0,0,1-1.12,4.1A12.68,12.68,0,0,1,248.63,80.63Z"/></g></g></svg>